<svg version="1.1" xmlns="http://www.w3.org/2000/svg" width="32" height="32" data-icon="puzzle-piece" class="iconic iconic-puzzle-piece iconic-size-md" viewBox="0 0 32 32">
  <g class="iconic-metadata">
    <title>Puzzle Piece</title>
  </g>
  <g class="iconic-container" data-width="32" data-height="32">
    <path class="iconic-property-fill" d="M18 20v4" />
    <path d="M29 18c-.7 0-1.3.3-1.8.6 0 0-1.8 1.1-1.8 1.1-.2.1-.6.3-.9.3h-.5c-1.1 0-2-.9-2-2v-7.5c0-.3-.2-.5-.5-.5h-7.5c-1.1 0-2-.9-2-2v-.5c0-.3.1-.7.3-.9 0 0 1.1-1.7 1.1-1.8.3-.5.6-1.1.6-1.8 0-1.7-1.3-3-3-3s-3 1.3-3 3c0 .7.3 1.3.6 1.8 0 0 1.1 1.8 1.1 1.8.2.2.3.6.3.9v.5c0 1.1-.9 2-2 2h-7.5c-.3 0-.5.2-.5.5v21c0 .3.2.5.5.5h7.5c1.1 0 2-.9 2-2v-.5c0-.3-.1-.7-.3-.9 0 0-1.1-1.7-1.1-1.8-.3-.5-.6-1.1-.6-1.8 0-1.7 1.3-3 3-3s3 1.3 3 3c0 .7-.3 1.3-.6 1.8 0 0-1.1 1.8-1.1 1.8-.1.2-.3.6-.3.9v.5c0 1.1.9 2 2 2h7.5c.3 0 .5-.2.5-.5v-7.5c0-1.1.9-2 2-2h.5c.3 0 .7.1.9.3 0 0 1.7 1.1 1.8 1.1.6.3 1.1.6 1.8.6 1.7 0 3-1.3 3-3s-1.3-3-3-3z"
    class="iconic-property-fill" />
  </g>
</svg>