<svg version="1.1" xmlns="http://www.w3.org/2000/svg" width="16" height="16" data-icon="puzzle-piece" class="iconic iconic-puzzle-piece iconic-size-sm" viewBox="0 0 16 16">
  <g class="iconic-metadata">
    <title>Puzzle Piece</title>
  </g>
  <g class="iconic-container" data-width="16" data-height="16">
    <path d="M14 9c-.5 0-1 .2-1.4.5 0 0-.2.2-.2.2-.2.2-.6.3-.9.3h-.5c-.6 0-1-.4-1-1v-3h-3c-.6 0-1-.4-1-1v-.5c0-.3.1-.7.3-.9 0 0 .2-.2.2-.2.3-.4.5-.9.5-1.4 0-1.1-.9-2-2-2s-2 .9-2 2c0 .5.2 1 .5 1.4 0 0 .2.2.2.2.2.2.3.6.3.9v.5c0 .6-.4 1-1 1h-3v10h3c.6 0 1-.4 1-1v-.5c0-.3-.1-.7-.3-.9 0 0-.2-.2-.2-.2-.3-.4-.5-.9-.5-1.4 0-1.1.9-2 2-2s2 .9 2 2c0 .5-.2 1-.5 1.4 0 0-.2.2-.2.2-.2.2-.3.6-.3.9v.5c0 .6.4 1 1 1h3v-3c0-.6.4-1 1-1h.5c.3 0 .7.1.9.3 0 0 .2.2.2.2.4.2.9.5 1.4.5 1.1 0 2-.9 2-2s-.9-2-2-2z"
    class="iconic-property-fill" />
  </g>
</svg>