<svg version="1.1" xmlns="http://www.w3.org/2000/svg" width="128" height="128" data-icon="puzzle-piece" class="iconic iconic-puzzle-piece iconic-size-lg" viewBox="0 0 128 128">
  <g class="iconic-metadata">
    <title>Puzzle Piece</title>
  </g>
  <g class="iconic-container" data-width="128" data-height="128">
    <path d="M116 70c-2.7 0-5.1 1.2-7.3 2.5-.1.1-7.1 4.5-7.1 4.5-.9.6-2.6 1.1-3.7 1.1-3.3 0-6-2.7-6-6v-35.1c0-.5-.5-1-1-1h-34.9c-3.3 0-6-2.7-6-6 0-1.1.5-2.8 1.1-3.7 0 0 4.4-7 4.5-7.1 1.3-2.2 2.5-4.5 2.5-7.3 0-6.6-5.4-12-12-12s-12 5.4-12 12c0 2.7 1.2 5.1 2.5 7.3.1.1 4.5 7.1 4.5 7.1.6.9 1.1 2.6 1.1 3.7 0 3.3-2.7 6-6 6h-35.2c-.5 0-1 .5-1 1v90c0 .5.5 1 1 1h35c3.3 0 6-2.7 6-6 0-1.1-.5-2.8-1.1-3.7 0 0-4.4-7-4.5-7.1-1.3-2.2-2.5-4.5-2.5-7.3 0-6.6 5.4-12 12-12s12 5.4 12 12c0 2.7-1.2 5.1-2.5 7.3-.1.1-4.5 7.1-4.5 7.1-.6.9-1.1 2.6-1.1 3.7 0 3.3 2.7 6 6 6h35c.5 0 1-.5 1-1v-35c0-3.3 2.7-6 6-6 1.1 0 2.8.5 3.7 1.1 0 0 7 4.4 7.1 4.5 2.2 1.3 4.5 2.5 7.3 2.5 6.6 0 12-5.4 12-12 .1-6.7-5.3-12.1-11.9-12.1z"
    class="iconic-property-fill" />
  </g>
</svg>