<svg xmlns="http://www.w3.org/2000/svg" version="1.1" width="16" height="16" data-icon="bug" viewBox="0 0 16 16">
  <path d="M3.844 0a.502.502 0 0 0 .156 1c.354 0 .614.145.875.406s.485.631.656 1.031c.063.147.107.294.156.438-.702.797-.967 1.968-.406 2.844-.012.008-.02.023-.031.031l-2.469-1.656a.5.5 0 0 0-.375-.094.5.5 0 0 0-.188.906l2.281 1.531c-.23.255-.442.537-.625.844l-3.594 1.781a.5.5 0 1 0 .438.875l2.563-1.281c-.172.581-.281 1.196-.281 1.844 0 .042-.001.083 0 .125l-1.906 2.563a.513.513 0 1 0 .813.625l1.313-1.719c.408 1.597 1.397 2.893 2.688 3.5.6-.4 1.094-1.194 1.094-2.094v-6c0-.3.2-.5.5-.5s.5.2.5.5v6c0 .9.494 1.694 1.094 2.094 1.291-.607 2.28-1.903 2.688-3.5l1.313 1.719a.513.513 0 1 0 .813-.625l-1.906-2.563c.001-.042 0-.083 0-.125 0-.648-.11-1.262-.281-1.844l2.563 1.281a.5.5 0 1 0 .438-.875l-3.594-1.781c-.183-.307-.395-.589-.625-.844l2.281-1.531a.5.5 0 0 0-.375-.906.5.5 0 0 0-.188.094l-2.469 1.656c-.012-.008-.02-.023-.031-.031.652-1.018.196-2.431-.781-3.188.013-.031.018-.062.031-.094.172-.401.395-.77.656-1.031.261-.261.521-.406.875-.406a.5.5 0 1 0 0-1c-.646 0-1.198.292-1.594.688-.395.395-.672.901-.875 1.375-.168-.04-.35-.063-.531-.063-.349 0-.672.08-.969.219-.022-.054-.039-.102-.063-.156-.203-.474-.48-.98-.875-1.375s-.948-.688-1.594-.688a.5.5 0 0 0-.094 0 .502.502 0 0 0-.063 0z"
  />
</svg>