<svg xmlns="http://www.w3.org/2000/svg" version="1.1" width="128" height="128" data-icon="iphone" data-container-transform="translate(33)" viewBox="0 0 128 128">
  <path d="M9 0c-5 0-9 4-9 9v110c0 5 4 9 9 9h44c5 0 9-4 9-9v-110c0-5-4-9-9-9h-44zm22 4.094c.5 0 .906.406.906.906s-.406.906-.906.906-.906-.406-.906-.906.406-.906.906-.906zm-4 5.906h8c.6 0 1 .4 1 1s-.4 1-1 1h-8c-.6 0-1-.4-1-1s.4-1 1-1zm-4.094.188c.5 0 .906.406.906.906s-.406.906-.906.906-.906-.406-.906-.906.406-.906.906-.906zm-18.906 5.813h54v94h-54v-94zm27 98c2.8 0 5 2.2 5 5s-2.2 5-5 5-5-2.2-5-5 2.2-5 5-5z"
  transform="translate(33)" />
</svg>