<svg xmlns="http://www.w3.org/2000/svg" version="1.1" width="32" height="32" data-icon="laptop" data-container-transform="translate(0 6)" viewBox="0 0 32 32">
  <path d="M4.5 0c-.372 0-.773.148-1.063.438-.29.29-.438.69-.438 1.063v15c0 .164.037.337.094.5h-3.094v1.5c0 .3.2.5.5.5h31c.3 0 .5-.2.5-.5v-1.5h-3.094c.057-.163.094-.336.094-.5v-15c0-.372-.148-.773-.438-1.063-.29-.29-.69-.438-1.063-.438h-23zm.5 2h22v14h-22v-14zm9 15h4v.5c0 .3-.2.5-.5.5h-3c-.225 0-.398-.098-.469-.281-.023-.061-.031-.144-.031-.219v-.5z"
  transform="translate(0 6)" />
</svg>