<svg xmlns="http://www.w3.org/2000/svg" version="1.1" width="32" height="32" data-icon="puzzle-piece" viewBox="0 0 32 32">
  <path d="M11 0c-1.7 0-3 1.3-3 3 0 .7.294 1.313.594 1.813l1.094 1.781c.2.2.313.606.313.906v.5c0 1.1-.9 2-2 2h-7.5c-.3 0-.5.2-.5.5v21c0 .3.2.5.5.5h7.5c1.1 0 2-.9 2-2v-.5c0-.3-.113-.706-.313-.906 0 0-1.094-1.681-1.094-1.781-.3-.5-.594-1.113-.594-1.813 0-1.7 1.3-3 3-3s3 1.3 3 3c0 .7-.294 1.313-.594 1.813l-1.094 1.781c-.1.2-.313.606-.313.906v.5c0 1.1.9 2 2 2h7.5c.3 0 .5-.2.5-.5v-7.5c0-1.1.9-2 2-2h.5c.3 0 .706.113.906.313 0 0 1.681 1.094 1.781 1.094.6.3 1.113.594 1.813.594 1.7 0 3-1.3 3-3s-1.3-3-3-3c-.7 0-1.313.294-1.813.594l-1.781 1.094c-.2.1-.606.313-.906.313h-.5c-1.1 0-2-.9-2-2v-7.5c0-.3-.2-.5-.5-.5h-7.5c-1.1 0-2-.9-2-2v-.5c0-.3.113-.706.313-.906 0 0 1.094-1.681 1.094-1.781.3-.5.594-1.112.594-1.813 0-1.7-1.3-3-3-3z"
  />
</svg>