<svg xmlns="http://www.w3.org/2000/svg" version="1.1" width="128" height="128" data-icon="puzzle-piece" viewBox="0 0 128 128">
  <path d="M46.094-.094c-6.6 0-12 5.4-12 12 0 2.7 1.2 5.081 2.5 7.281.1.1 4.5 7.125 4.5 7.125.6.9 1.094 2.587 1.094 3.688 0 3.3-2.7 6-6 6h-35.188c-.5 0-1 .5-1 1v90c0 .5.5 1 1 1h35c3.3 0 6-2.7 6-6 0-1.1-.494-2.787-1.094-3.688 0 0-4.4-7.025-4.5-7.125-1.3-2.2-2.5-4.481-2.5-7.281 0-6.6 5.4-12 12-12s12 5.4 12 12c0 2.7-1.2 5.081-2.5 7.281-.1.1-4.5 7.125-4.5 7.125-.6.9-1.094 2.588-1.094 3.688 0 3.3 2.7 6 6 6h35c.5 0 1-.5 1-1v-35c0-3.3 2.7-6 6-6 1.1 0 2.787.494 3.688 1.094 0 0 6.994 4.4 7.094 4.5 2.2 1.3 4.513 2.5 7.313 2.5 6.6 0 12-5.4 12-12 .1-6.7-5.306-12.094-11.906-12.094-2.7 0-5.112 1.2-7.313 2.5-.1.1-7.094 4.5-7.094 4.5-.9.6-2.588 1.094-3.688 1.094-3.3 0-6-2.7-6-6v-35.094c0-.5-.5-1-1-1h-34.906c-3.3 0-6-2.7-6-6 0-1.1.494-2.788 1.094-3.688 0 0 4.4-7.025 4.5-7.125 1.3-2.2 2.5-4.481 2.5-7.281 0-6.6-5.4-12-12-12z"
  />
</svg>