<svg xmlns="http://www.w3.org/2000/svg" version="1.1" width="16" height="16" data-icon="puzzle-piece" viewBox="0 0 16 16">
  <path d="M5 0c-1.1 0-2 .9-2 2 0 .5.2 1.006.5 1.406l.188.188c.2.2.313.606.313.906v.5c0 .6-.4 1-1 1h-3v10h3c.6 0 1-.4 1-1v-.5c0-.3-.112-.706-.313-.906l-.188-.188c-.3-.4-.5-.906-.5-1.406 0-1.1.9-2 2-2s2 .9 2 2c0 .5-.2 1.006-.5 1.406l-.188.188c-.2.2-.313.606-.313.906v.5c0 .6.4 1 1 1h3v-3c0-.6.4-1 1-1h.5c.3 0 .706.113.906.313l.188.188c.4.2.906.5 1.406.5 1.1 0 2-.9 2-2s-.9-2-2-2c-.5 0-1.006.2-1.406.5l-.188.188c-.2.2-.606.313-.906.313h-.5c-.6 0-1-.4-1-1v-3h-3c-.6 0-1-.4-1-1v-.5c0-.3.112-.706.313-.906l.188-.188c.3-.4.5-.906.5-1.406 0-1.1-.9-2-2-2z"
  />
</svg>