<svg xmlns="http://www.w3.org/2000/svg" version="1.1" width="32" height="32" data-icon="question-mark" data-container-transform="translate(6)" viewBox="0 0 32 32">
  <path d="M10 0c-4.5 0-7.424 1.93-8.75 4.25-1.326 2.32-1.25 4.75-1.25 5.75h4c0-1 .076-2.57.75-3.75.674-1.18 1.75-2.25 5.25-2.25 2.656 0 4.107.679 4.906 1.406.799.727 1.094 1.604 1.094 2.594 0 3.333-1.35 4.326-3.375 6.25-2.025 1.924-4.625 4.744-4.625 9.75v1h4v-1c0-3.794 1.4-4.968 3.375-6.844 1.975-1.876 4.625-4.49 4.625-9.156 0-1.91-.705-4.015-2.406-5.563s-4.249-2.438-7.594-2.438zm-2 28v4h4v-4h-4z"
  transform="translate(6)" />
</svg>